<svg width="122" height="26" viewBox="0 0 122 26" xmlns="http://www.w3.org/2000/svg" xmlns:xlink="http://www.w3.org/1999/xlink"><title>social-icons</title><defs><rect id="a" width="26" height="26" rx="4"/><filter x="-1.9%" y="-1.9%" width="103.8%" height="103.8%" filterUnits="objectBoundingBox" id="b"><feOffset dy="-1" in="SourceAlpha" result="shadowOffsetInner1"/><feComposite in="shadowOffsetInner1" in2="SourceAlpha" operator="arithmetic" k2="-1" k3="1" result="shadowInnerInner1"/><feColorMatrix values="0 0 0 0 0 0 0 0 0 0 0 0 0 0 0 0 0 0 0.07 0" in="shadowInnerInner1"/></filter><rect id="c" x="32" width="26" height="26" rx="4"/><filter x="-1.9%" y="-1.9%" width="103.8%" height="103.8%" filterUnits="objectBoundingBox" id="d"><feOffset dy="-1" in="SourceAlpha" result="shadowOffsetInner1"/><feComposite in="shadowOffsetInner1" in2="SourceAlpha" operator="arithmetic" k2="-1" k3="1" result="shadowInnerInner1"/><feColorMatrix values="0 0 0 0 0 0 0 0 0 0 0 0 0 0 0 0 0 0 0.07 0" in="shadowInnerInner1"/></filter><rect id="e" x="64" width="26" height="26" rx="4"/><filter x="-1.9%" y="-1.9%" width="103.8%" height="103.8%" filterUnits="objectBoundingBox" id="f"><feOffset dy="-1" in="SourceAlpha" result="shadowOffsetInner1"/><feComposite in="shadowOffsetInner1" in2="SourceAlpha" operator="arithmetic" k2="-1" k3="1" result="shadowInnerInner1"/><feColorMatrix values="0 0 0 0 0 0 0 0 0 0 0 0 0 0 0 0 0 0 0.07 0" in="shadowInnerInner1"/></filter><rect id="g" x="96" width="26" height="26" rx="4"/><filter x="-1.9%" y="-1.9%" width="103.8%" height="103.8%" filterUnits="objectBoundingBox" id="h"><feOffset dy="-1" in="SourceAlpha" result="shadowOffsetInner1"/><feComposite in="shadowOffsetInner1" in2="SourceAlpha" operator="arithmetic" k2="-1" k3="1" result="shadowInnerInner1"/><feColorMatrix values="0 0 0 0 0 0 0 0 0 0 0 0 0 0 0 0 0 0 0.07 0" in="shadowInnerInner1"/></filter></defs><g fill="none" fill-rule="evenodd"><use fill="#3B5998" xlink:href="#a"/><use fill="#000" filter="url(#b)" xlink:href="#a"/><use fill="#4D75A3" xlink:href="#c"/><use fill="#000" filter="url(#d)" xlink:href="#c"/><path d="M44.805 17.989h1.074a.924.924 0 0 0 .491-.21.747.747 0 0 0 .148-.459s-.021-1.42.65-1.627c.66-.204 1.509 1.357 2.408 1.96a1.66 1.66 0 0 0 1.197.337h2.405s1.26-.092.66-1.054a7.876 7.876 0 0 0-1.789-2.013c-1.507-1.361-1.305-1.14.511-3.495 1.106-1.435 1.549-2.31 1.41-2.685-.131-.356-.94-.297-.94-.297h-2.71a.674.674 0 0 0-.35.067.748.748 0 0 0-.24.305c-.278.716-.612 1.41-1 2.074-1.205 1.991-1.687 2.097-1.884 1.973-.459-.289-.344-1.158-.344-1.776 0-1.93.3-2.734-.586-2.942a4.72 4.72 0 0 0-1.263-.123 5.995 5.995 0 0 0-2.248.224c-.307.146-.545.475-.4.493.306.026.592.165.799.39.187.37.28.779.268 1.192 0 0 .16 2.271-.373 2.553-.365.193-.866-.201-1.94-2.008a16.088 16.088 0 0 1-.967-1.968.782.782 0 0 0-.223-.294 1.14 1.14 0 0 0-.416-.162h-2.57a.895.895 0 0 0-.529.174.533.533 0 0 0-.01.446s2.014 4.618 4.295 6.928a6.325 6.325 0 0 0 4.466 1.997z" fill="#FFF"/><use fill="#48A0DC" xlink:href="#e"/><use fill="#000" filter="url(#f)" xlink:href="#e"/><path d="M86 7.656a7.58 7.58 0 0 1-2.121.557 3.565 3.565 0 0 0 1.623-1.955 7.58 7.58 0 0 1-2.344.858A3.765 3.765 0 0 0 80.462 6c-2.039 0-3.692 1.582-3.692 3.534 0 .278.032.547.095.806-3.068-.147-5.79-1.554-7.611-3.693a3.4 3.4 0 0 0-.5 1.777c0 1.226.652 2.308 1.643 2.942a3.808 3.808 0 0 1-1.673-.443v.045c0 1.712 1.272 3.14 2.962 3.465a3.842 3.842 0 0 1-1.668.06c.47 1.404 1.834 2.426 3.449 2.454a7.622 7.622 0 0 1-4.586 1.514 7.88 7.88 0 0 1-.881-.05A10.789 10.789 0 0 0 73.661 20c6.792 0 10.507-5.386 10.507-10.056 0-.153-.003-.306-.011-.458A7.326 7.326 0 0 0 86 7.656z" fill="#FFF" fill-rule="nonzero"/><use fill="#AAA" xlink:href="#g"/><use fill="#000" filter="url(#h)" xlink:href="#g"/><path d="M115.89 6.209c-1.546-1.534-3.708-1.617-5.138-.197l-1.01 1.001a.991.991 0 0 0 1.398 1.407l1.008-1.001c.742-.736 1.712-.431 2.346.197a1.758 1.758 0 0 1 0 2.503l-3.18 3.154c-1.454 1.443-2.136.766-2.426.477a.992.992 0 0 0-1.398 1.407c.668.662 1.43.99 2.228.99.978 0 2.01-.492 2.992-1.467l3.18-3.154A3.719 3.719 0 0 0 117 8.868a3.72 3.72 0 0 0-1.11-2.66zm-9.032 11.485l-.808.804a1.813 1.813 0 0 1-2.546 0 1.756 1.756 0 0 1-.522-1.251c0-.473.186-.917.522-1.252l2.98-2.956c.618-.613 1.78-1.515 2.626-.675a.991.991 0 0 0 1.398-1.407c-1.44-1.428-3.566-1.164-5.42.674l-2.98 2.957A3.716 3.716 0 0 0 101 17.247c0 1.004.392 1.948 1.108 2.658A3.777 3.777 0 0 0 104.776 21c.968 0 1.934-.365 2.67-1.095l.81-.804a.991.991 0 1 0-1.398-1.407zM14.842 21.5v-7.527h2.652l.398-2.933h-3.05V9.167c0-.85.247-1.428 1.526-1.428H18V5.116c-.79-.08-1.583-.119-2.377-.116-2.352 0-3.963 1.367-3.963 3.877v2.164H9v2.933h2.66V21.5h3.182z" fill="#FFF"/></g></svg>