<svg xmlns="http://www.w3.org/2000/svg" width="16" height="65" viewBox="0 0 16 65">
  <svg xmlns:xlink="http://www.w3.org/1999/xlink" width="16" height="12" viewBox="0 -2 16 12">
    <rect x="10" y="119" width="16" height="2" rx="1" transform="translate(-10 -119)" fill="#ad998b" fill-rule="evenodd" />
  </svg>
  <svg xmlns:xlink="http://www.w3.org/1999/xlink" width="16" height="26" viewBox="0 -10 16 26" y="12">
    <g fill="#ad998b" fill-rule="evenodd">
      <rect y="7" width="16" height="2" rx="1" fill="#ad998b" />
      <rect x="7" width="2" height="16" rx="1" fill="#ad998b" />
    </g>
  </svg>
  <svg width="10" height="10" viewBox="0 0 10 10" xmlns="http://www.w3.org/2000/svg" y="54" x="3"><path d="M4 4H.995C.455 4 0 4.448 0 5c0 .556.446 1 .995 1H4v3.005c0 .54.448.995 1 .995.556 0 1-.446 1-.995V6h3.005c.54 0 .995-.448.995-1 0-.556-.446-1-.995-1H6V.995C6 .455 5.552 0 5 0c-.556 0-1 .446-1 .995V4z" fill="#FFF" fill-rule="evenodd" /></svg>
</svg>