<svg width="18" height="18" xmlns="http://www.w3.org/2000/svg" viewBox="0 0 100 100" preserveAspectRatio="xMidYMid" class="uil-default"><path fill="none" class="bk" d="M0 0h100v100H0z"/><rect x="46.5" y="40" width="7" height="20" rx="10" ry="10" fill="#4a89dc" transform="translate(0 -30)"><animate attributeName="opacity" from="1" to="0" dur="1.2s" begin="0s" repeatCount="indefinite"/></rect><rect x="46.5" y="40" width="7" height="20" rx="10" ry="10" fill="#4a89dc" transform="rotate(30 105.98 65)"><animate attributeName="opacity" from="1" to="0" dur="1.2s" begin="0.09999999999999999s" repeatCount="indefinite"/></rect><rect x="46.5" y="40" width="7" height="20" rx="10" ry="10" fill="#4a89dc" transform="rotate(60 75.98 65)"><animate attributeName="opacity" from="1" to="0" dur="1.2s" begin="0.19999999999999998s" repeatCount="indefinite"/></rect><rect x="46.5" y="40" width="7" height="20" rx="10" ry="10" fill="#4a89dc" transform="rotate(90 65 65)"><animate attributeName="opacity" from="1" to="0" dur="1.2s" begin="0.3s" repeatCount="indefinite"/></rect><rect x="46.5" y="40" width="7" height="20" rx="10" ry="10" fill="#4a89dc" transform="rotate(120 58.66 65)"><animate attributeName="opacity" from="1" to="0" dur="1.2s" begin="0.39999999999999997s" repeatCount="indefinite"/></rect><rect x="46.5" y="40" width="7" height="20" rx="10" ry="10" fill="#4a89dc" transform="rotate(150 54.02 65)"><animate attributeName="opacity" from="1" to="0" dur="1.2s" begin="0.5s" repeatCount="indefinite"/></rect><rect x="46.5" y="40" width="7" height="20" rx="10" ry="10" fill="#4a89dc" transform="rotate(180 50 65)"><animate attributeName="opacity" from="1" to="0" dur="1.2s" begin="0.6s" repeatCount="indefinite"/></rect><rect x="46.5" y="40" width="7" height="20" rx="10" ry="10" fill="#4a89dc" transform="rotate(-150 45.98 65)"><animate attributeName="opacity" from="1" to="0" dur="1.2s" begin="0.7000000000000001s" repeatCount="indefinite"/></rect><rect x="46.5" y="40" width="7" height="20" rx="10" ry="10" fill="#4a89dc" transform="rotate(-120 41.34 65)"><animate attributeName="opacity" from="1" to="0" dur="1.2s" begin="0.7999999999999999s" repeatCount="indefinite"/></rect><rect x="46.5" y="40" width="7" height="20" rx="10" ry="10" fill="#4a89dc" transform="rotate(-90 35 65)"><animate attributeName="opacity" from="1" to="0" dur="1.2s" begin="0.8999999999999999s" repeatCount="indefinite"/></rect><rect x="46.5" y="40" width="7" height="20" rx="10" ry="10" fill="#4a89dc" transform="rotate(-60 24.02 65)"><animate attributeName="opacity" from="1" to="0" dur="1.2s" begin="1s" repeatCount="indefinite"/></rect><rect x="46.5" y="40" width="7" height="20" rx="10" ry="10" fill="#4a89dc" transform="rotate(-30 -5.98 65)"><animate attributeName="opacity" from="1" to="0" dur="1.2s" begin="1.0999999999999999s" repeatCount="indefinite"/></rect></svg>