<svg width="24" height="24" viewBox="0 0 24 24" xmlns="http://www.w3.org/2000/svg"><path d="M23.013 0A19.24 19.24 0 0 0 12 3.75 19.236 19.236 0 0 0 .987 0H0v19.572h.987c3.104.015 6.143.888 8.782 2.521.476.352.927.736 1.35 1.148l.831.759h.1l.835-.75c.424-.413.875-.797 1.35-1.149a16.853 16.853 0 0 1 8.784-2.52H24V0h-.987zM10.5 19.5A14.565 14.565 0 0 0 3 16.8V3c4.175.315 6.021 1.545 7.5 3v13.5zM21 16.8c-2.702.185-5.3 1.12-7.5 2.7V6c1.477-1.455 3.325-2.685 7.5-3v13.8z" fill="#ccc" fill-rule="evenodd" /></svg>