<svg width="20" height="20" viewBox="0 0 20 20" fill="none" xmlns="http://www.w3.org/2000/svg">
<path fill-rule="evenodd" clip-rule="evenodd" d="M6.83781 2.64933C6.25917 2.8986 5.71582 3.2142 5.21733 3.58654L3.54949 3.10944C3.01412 2.95629 2.36608 3.22259 2.08999 3.7008L0.589795 6.2992C0.311749 6.78079 0.411138 7.47568 0.807417 7.85885L2.05427 9.06444C2.01852 9.37133 2.00015 9.68352 2.00015 10C2.00015 10.3165 2.01852 10.6287 2.05427 10.9356L0.807417 12.1412C0.407102 12.5282 0.313706 13.2226 0.589795 13.7008L2.08999 16.2992C2.36803 16.7808 3.01952 17.0422 3.54949 16.8906L5.21733 16.4135C5.71582 16.7858 6.25917 17.1014 6.83781 17.3507L7.25807 19.0317C7.39313 19.5719 7.94777 20 8.49995 20H11.5003C12.0564 20 12.6085 19.5665 12.7422 19.0317L13.1625 17.3507C13.7411 17.1014 14.2845 16.7858 14.783 16.4135L16.4508 16.8906C16.9862 17.0437 17.6342 16.7774 17.9103 16.2992L19.4105 13.7008C19.6885 13.2192 19.5892 12.5243 19.1929 12.1412L17.946 10.9356C17.9818 10.6287 18.0001 10.3165 18.0001 10C18.0001 9.68352 17.9818 9.37133 17.946 9.06444L19.1929 7.85885C19.5932 7.47178 19.6866 6.77741 19.4105 6.2992L17.9103 3.7008C17.6323 3.21921 16.9808 2.95784 16.4508 3.10944L14.783 3.58654C14.2845 3.2142 13.7411 2.8986 13.1625 2.64933L12.7422 0.968288C12.6072 0.42807 12.0525 0 11.5003 0H8.49995C7.94386 0 7.39177 0.433518 7.25807 0.968288L6.83781 2.64933ZM2.60272 6.81272L3.54117 5.18728L5.62016 5.782L6.4142 5.18888C6.7905 4.90781 7.19817 4.67177 7.62908 4.48614L8.53805 4.09457L9.0617 2H10.9386L11.4622 4.09457L12.3712 4.48614C12.8021 4.67177 13.2098 4.90781 13.5861 5.18888L14.3801 5.782L16.4591 5.18728L17.3976 6.81272L15.8451 8.31385L15.9595 9.29583C15.9865 9.52799 16.0001 9.76293 16.0001 10C16.0001 10.2371 15.9865 10.472 15.9595 10.7042L15.8451 11.6862L17.3976 13.1873L16.4591 14.8127L14.3801 14.218L13.5861 14.8111C13.2098 15.0922 12.8021 15.3282 12.3712 15.5139L11.4622 15.9054L10.9386 18H9.0617L8.53805 15.9054L7.62908 15.5139C7.19817 15.3282 6.7905 15.0922 6.4142 14.8111L5.62016 14.218L3.54117 14.8127L2.60272 13.1873L4.15522 11.6862L4.04084 10.7042C4.0138 10.472 4.00014 10.2371 4.00014 10C4.00014 9.76293 4.0138 9.52799 4.04084 9.29583L4.15522 8.31385L2.60272 6.81272ZM10.0001 14C7.79101 14 6.00014 12.2091 6.00014 10C6.00014 7.79086 7.79101 6 10.0001 6C12.2093 6 14.0001 7.79086 14.0001 10C14.0001 12.2091 12.2093 14 10.0001 14ZM12.0002 10C12.0002 11.1046 11.1047 12 10.0002 12C8.89558 12 8.00015 11.1046 8.00015 10C8.00015 8.89543 8.89558 8 10.0002 8C11.1047 8 12.0002 8.89543 12.0002 10Z" fill="#000" />
</svg>
